<?xml version="1.0" standalone="no"?>
<!DOCTYPE svg PUBLIC "-//W3C//DTD SVG 20010904//EN"
 "http://www.w3.org/TR/2001/REC-SVG-20010904/DTD/svg10.dtd">
<svg version="1.0" xmlns="http://www.w3.org/2000/svg"
 width="500.000000pt" height="500.000000pt" viewBox="0 0 500.000000 500.000000"
 preserveAspectRatio="xMidYMid meet">

<g transform="translate(0.000000,500.000000) scale(0.100000,-0.100000)"
fill="#000000" stroke="none">
<path d="M2245 4768 c-244 -27 -523 -109 -744 -219 -982 -485 -1480 -1562
-1215 -2624 74 -298 242 -630 438 -870 308 -376 746 -659 1200 -776 179 -46
286 -60 507 -66 237 -6 348 3 549 44 422 85 871 334 1165 644 341 360 546 778
621 1264 25 165 26 494 1 655 -84 542 -341 1021 -738 1375 -359 321 -787 515
-1256 570 -138 16 -400 18 -528 3z m555 -194 c270 -38 577 -149 800 -287 536
-334 897 -886 985 -1508 21 -149 21 -429 0 -569 -92 -622 -419 -1135 -945
-1483 -377 -249 -878 -372 -1331 -327 -484 49 -907 242 -1257 575 -304 290
-517 671 -606 1086 -116 543 -4 1132 302 1590 459 684 1243 1037 2052 923z"/>
<path d="M1584 3330 c-75 -30 -138 -89 -175 -166 -28 -57 -33 -76 -33 -144 0
-68 5 -87 33 -144 35 -71 86 -122 160 -157 36 -18 64 -23 132 -23 79 -1 91 2
155 34 78 40 133 103 160 183 23 69 16 187 -15 250 -29 61 -97 129 -158 158
-67 33 -189 37 -259 9z"/>
<path d="M3210 3341 c-90 -29 -174 -104 -213 -189 -17 -36 -22 -66 -22 -132 0
-66 5 -96 22 -132 30 -66 96 -133 162 -165 48 -24 68 -28 141 -28 73 0 93 4
141 28 66 32 132 99 162 165 17 36 22 66 22 132 0 101 -20 154 -86 225 -64 70
-127 98 -224 101 -44 2 -91 0 -105 -5z"/>
<path d="M974 2318 c3 -18 8 -76 11 -128 23 -362 174 -689 440 -956 226 -227
500 -372 810 -430 147 -28 423 -26 561 4 609 131 1068 583 1194 1177 19 86 47
351 39 359 -2 3 -65 -16 -139 -41 -262 -88 -572 -157 -895 -200 -192 -25 -793
-25 -990 0 -307 40 -602 106 -875 196 -84 28 -155 51 -157 51 -2 0 -2 -15 1
-32z m335 -268 c728 -208 1621 -210 2365 -5 70 19 133 35 138 35 18 0 -22
-163 -64 -261 l-19 -46 -187 -46 c-371 -92 -563 -117 -945 -124 -395 -8 -606
11 -962 83 -186 38 -349 84 -363 102 -13 18 -76 206 -85 260 -8 40 -9 40 122
2z"/>
</g>
</svg>
